HIERARCHY
ROOT Hips
{
	OFFSET	0.00	0.00	0.00
	CHANNELS 6 Xposition Yposition Zposition Zrotation Xrotation Yrotation
	JOINT Spine
	{
		OFFSET	 0.00	0.01	 0.00
		CHANNELS 3 Zrotation Xrotation Yrotation
		JOINT Spine1
		{
			OFFSET	 0.00	 2.45913012437421	 0.00
			CHANNELS 3 Zrotation Xrotation Yrotation
            JOINT Neck
            {
                OFFSET	 0.00	 2.48462964506057	 0.00
                CHANNELS 3 Zrotation Xrotation Yrotation
                JOINT Head
                {
                    OFFSET	 0.00	 0.927524780924562	 0.00
                    CHANNELS 3 Zrotation Xrotation Yrotation
                    End Site 
                    {
                        OFFSET	 0.00	 1.14999962169752	 0.00
                    }
                }
            }
			JOINT LeftShoulder
			{
				OFFSET	 0.00	 2.48462964506057	 0.00
				CHANNELS 3 Zrotation Xrotation Yrotation
				JOINT LeftUpArm
				{
					OFFSET	 0.00	 1.24881979654096	 0.00
					CHANNELS 3 Zrotation Xrotation Yrotation
					JOINT LeftForeArm
					{
						OFFSET	 0.00	2.59758046908119	 0.00
						CHANNELS 3 Zrotation Xrotation Yrotation
						JOINT LeftHand
						{
							OFFSET	 0.00	2.45542024364365	 0.00
							CHANNELS 3 Zrotation Xrotation Yrotation
							JOINT LeftHandThumb 
							{
								OFFSET	 0.00	0.00	 0.00
								CHANNELS 3 Zrotation Xrotation Yrotation
								End Site
								{
									OFFSET	 0.00	0.00	1.00000003353624
								}
							}
							JOINT L_Wrist_End 
							{
								OFFSET	 0.00	0.99999967115358	 0.00
								CHANNELS 3 Zrotation Xrotation Yrotation
								End Site 
								{
									OFFSET	 0.00	 0.00	 0.00
								}
							}
						}
					}
				}
			}
			JOINT RightShoulder
			{
				OFFSET	 0.00	 2.48462964506057	 0.00
				CHANNELS 3 Zrotation Xrotation Yrotation
				JOINT RightUpArm
				{
					OFFSET	 0.00	 1.24881979654096	 0.00
					CHANNELS 3 Zrotation Xrotation Yrotation
					JOINT RightForeArm
					{
						OFFSET	 0.00	2.59758046908119	 0.00
						CHANNELS 3 Zrotation Xrotation Yrotation
						JOINT RightHand
						{
							OFFSET	 0.00	2.45542024364365	 0.00
							CHANNELS 3 Zrotation Xrotation Yrotation
							JOINT RightHandThumb 
							{
								OFFSET	 0.00	0.00	 0.00
								CHANNELS 3 Zrotation Xrotation Yrotation
								End Site
								{
									OFFSET	 0.00	0.00	1.00000003353624
								}
							}
							JOINT R_Wrist_End 
							{
								OFFSET	 0.00	0.99999967115358	 0.00
								CHANNELS 3 Zrotation Xrotation Yrotation
								End Site 
								{
									OFFSET	 0.00	 0.00	 0.00
								}
							}
						}
					}
				}
			}
		}
	}
	JOINT LeftUpLeg
	{
		OFFSET	 1.2719394002717	 0.00	 0.00
		CHANNELS 3 Zrotation Xrotation Yrotation
		JOINT LeftLowLeg
		{
			OFFSET	 0.00	-4.3429100912261	 0.00
			CHANNELS 3 Zrotation Xrotation Yrotation
			JOINT LeftFoot
			{
				OFFSET	 0.00	-4.48767017425826	 0.00
				CHANNELS 3 Zrotation Xrotation Yrotation
				JOINT LeftToeBase
                {
                    OFFSET	 0.00	0.00	 1.51507020887566
                    CHANNELS 3 Zrotation Xrotation Yrotation
                    End Site 
                    {
                        OFFSET	 0.00	0.00	 0.75000010571191
                    }
                }
			}
		}
	}
	JOINT RightUpLeg
	{
		OFFSET	 -1.2719393604653	 0.00	 0.00
		CHANNELS 3 Zrotation Xrotation Yrotation
		JOINT RightLowLeg
		{
			OFFSET	 0.00	-4.3429100912261	 0.00
			CHANNELS 3 Zrotation Xrotation Yrotation
			JOINT RightFoot
			{
				OFFSET	 0.00	-4.48767017425826	 0.00
				CHANNELS 3 Zrotation Xrotation Yrotation
				JOINT RightToeBase
                {
                    OFFSET	 0.00	0.00	 1.51507020887566
                    CHANNELS 3 Zrotation Xrotation Yrotation
                    End Site 
                    {
                        OFFSET	 0.00	0.00	 0.749999965609858
                    }
                }   
			}
		}
	}
}
MOTION 
Frames:	17 
Frame Time: 0.02 
 -1.947030029296875 1.2231900024414062 9.305770263671874 75.6636 87.6716 643.325 4.2202 -14.3884 1.76642 -5.58797 16.7065 1.77354 19.4744 47.398 352.226 -68.6782 -81.233 -419.061 -117.3516 -3.17859 366.06 -44.2434 7.95571 11.7645 0.0 19.5343 0.0 7.46565 -13.671 1.50313 0.0 0.0 0.0 0.0 0.0 0.0 118.4297 -10.3555 -357.928 42.6827 -10.5406 -367.782 0.0 115.407 0.0 -24.6717 9.8215 12.9716 0.0 0.0 0.0 0.0 0.0 0.0 -2.75926 -2.36713 -11.1697 0.0 19.2715 0.0 -16.5451 -8.260599 11.1037 0.0 -19.52489 0.0 3.03376 -5.35888 21.3087 0.0 22.7125 0.0 31.1361 -11.041401 -3.35375 0.0 -16.7233 0.0 
  -1.9359100341796875 1.2316699981689454 9.306119995117188 72.5039 87.6529 645.855 4.04295 -14.7792 1.72484 -5.17289 17.9239 2.14717 19.0084 46.5197 352.504 -66.3651 -81.1337 -417.23 -117.468704 -2.79619 365.469 -44.5594 7.89169 11.6425 0.0 19.2287 0.0 7.13364 -13.745 1.66843 0.0 0.0 0.0 0.0 0.0 0.0 118.5867 -10.1385 -357.572 42.4503 -10.2022 -367.914 0.0 118.435 0.0 -27.8022 11.126 11.6901 0.0 0.0 0.0 0.0 0.0 0.0 -2.79829 -2.16085 -10.6896 0.0 19.1415 0.0 -16.4106 -8.285299 11.2726 0.0 -19.51938 0.0 3.04013 -5.43298 21.7284 0.0 22.8439 0.0 31.2559 -10.8937 -3.21843 0.0 -16.73066 0.0 
  -1.925540008544922 1.2447000122070313 9.30958984375 74.2288 87.6644 643.525 4.24507 -14.2986 2.25908 -6.26423 17.4972 2.25314 22.4682 45.9024 349.532 -63.5076 -82.2537 -413.028 -116.8762 -3.06662 365.582 -44.7074 8.1591 11.4131 0.0 19.0536 0.0 7.45872 -13.9561 2.47505 0.0 0.0 0.0 0.0 0.0 0.0 118.468704 -9.80032 -357.816 43.7515 -8.49767 -369.927 0.0 113.475 0.0 -44.0709 33.5628 13.7861 0.0 0.0 0.0 0.0 0.0 0.0 -2.87128 -2.19243 -10.3695 0.0 19.021 0.0 -16.2637 -8.211599 11.604 0.0 -19.57872 0.0 3.07451 -5.73499 22.3473 0.0 23.006 0.0 31.2117 -10.738701 -3.37508 0.0 -16.80564 0.0 
  -1.914219970703125 1.2561699676513671 9.308189697265625 73.8768 87.6473 643.394 4.13041 -14.2393 2.25104 -6.2046 17.7281 2.36554 22.5751 45.5744 349.45 -62.2113 -82.3411 -411.934 -116.8521 -2.94672 365.504 -44.879 8.15224 11.3122 0.0 18.824 0.0 7.04149 -13.8853 2.15184 0.0 0.0 0.0 0.0 0.0 0.0 118.7615 -9.54098 -357.91 43.8402 -8.25483 -369.565 0.0 115.021 0.0 -45.1023 34.1536 12.1979 0.0 0.0 0.0 0.0 0.0 0.0 -2.96493 -2.18463 -10.124 0.0 19.0084 0.0 -16.328 -8.315001 11.759 0.0 -19.59375 0.0 3.06928 -5.89763 22.7679 0.0 23.1154 0.0 31.3048 -10.7274 -3.34358 0.0 -16.75211 0.0 
  -1.9037800598144532 1.2660900115966798 9.30677001953125 74.3121 87.6395 642.548 3.95958 -14.2145 2.14955 -6.11157 17.9372 2.41922 22.5618 45.3583 349.546 -61.3177 -82.4486 -411.222 -116.8198 -2.91435 365.494 -45.0467 8.2036 11.2312 0.0 18.6382 0.0 6.7294 -13.9083 2.48001 0.0 0.0 0.0 0.0 0.0 0.0 119.024 -9.37193 -358.304 44.0414 -7.80123 -369.215 0.0 116.073 0.0 -45.6847 34.4347 10.7297 0.0 0.0 0.0 0.0 0.0 0.0 -3.04406 -2.20945 -9.88986 0.0 18.9876 0.0 -16.2753 -8.377199 11.9128 0.0 -19.58898 0.0 3.10839 -6.09919 23.3204 0.0 23.3003 0.0 31.3587 -10.789 -3.47373 0.0 -16.76422 0.0 
  -1.8928799438476562 1.2777999877929687 9.304810180664063 74.8021 87.6361 641.76 3.77047 -14.1785 2.00605 -5.98909 18.1528 2.44467 22.4457 45.127 349.713 -60.5423 -82.5203 -410.684 -116.815704 -2.8067 365.623 -45.1311 8.28914 11.2015 0.0 18.5632 0.0 6.37313 -13.92 2.18571 0.0 0.0 0.0 0.0 0.0 0.0 119.2894 -9.19287 -358.431 44.1971 -7.65299 -369.146 0.0 116.832 0.0 -45.5878 34.3779 10.6889 0.0 0.0 0.0 0.0 0.0 0.0 -3.14501 -2.29088 -9.88516 0.0 19.0447 0.0 -16.2845 -8.496099 12.115 0.0 -19.53474 0.0 3.1347 -6.27896 23.7835 0.0 23.4374 0.0 31.4671 -10.871099 -3.58825 0.0 -16.77791 0.0 
  -1.881739959716797 1.2893899536132813 9.3039697265625 75.0212 87.608 641.256 3.58689 -14.1592 1.85526 -5.92929 18.4319 2.45622 22.3476 44.8655 349.852 -59.649 -82.5935 -409.947 -116.7525 -2.73758 365.686 -45.247 8.37279 11.3357 0.0 18.5425 0.0 6.38197 -13.9684 2.13678 0.0 0.0 0.0 0.0 0.0 0.0 119.5485 -9.0687 -358.516 44.315 -7.46771 -369.363 0.0 117.372 0.0 -46.0148 34.1325 9.45476 0.0 0.0 0.0 0.0 0.0 0.0 -3.24002 -2.34203 -9.69696 0.0 19.0456 0.0 -16.279 -8.513599 12.1899 0.0 -19.517311 0.0 3.13853 -6.46485 24.2177 0.0 23.6249 0.0 31.5715 -10.9359 -3.68272 0.0 -16.7231 0.0 
  -1.8706700134277343 1.300489959716797 9.303049926757813 74.3329 87.5734 641.724 3.37461 -14.045 1.68307 -5.81819 18.5978 2.44801 22.3227 44.6919 349.896 -59.2158 -82.6515 -409.554 -116.7162 -2.68468 365.726 -45.3495 8.44964 11.4204 0.0 18.4707 0.0 6.40105 -13.9579 2.24143 0.0 0.0 0.0 0.0 0.0 0.0 119.7318 -9.00246 -358.631 44.441 -7.37111 -369.592 0.0 117.766 0.0 -46.1704 34.318 9.20968 0.0 0.0 0.0 0.0 0.0 0.0 -3.34537 -2.35815 -9.62067 0.0 19.0499 0.0 -16.2393 -8.5408 12.3259 0.0 -19.51551 0.0 3.11597 -6.59911 24.4856 0.0 23.7892 0.0 31.6452 -10.960899 -3.70026 0.0 -16.67465 0.0 
  -1.8588699340820312 1.31322998046875 9.301920166015625 72.8628 87.5443 643.016 3.16969 -13.8786 1.50338 -5.66387 18.7539 2.4301 22.2667 44.4796 349.912 -58.5856 -82.6473 -408.981 -116.7048 -2.60424 365.762 -45.4165 8.51592 11.5235 0.0 18.4558 0.0 6.45166 -13.9208 2.4641 0.0 0.0 0.0 0.0 0.0 0.0 119.8368 -8.97474 -358.69 44.535 -7.3348 -369.804 0.0 118.076 0.0 -45.7794 34.6043 9.77964 0.0 0.0 0.0 0.0 0.0 0.0 -3.45393 -2.39481 -9.6136 0.0 19.1343 0.0 -16.2048 -8.5879 12.4851 0.0 -19.50658 0.0 3.07399 -6.72559 24.5897 0.0 23.9659 0.0 31.693 -10.9018 -3.61936 0.0 -16.68431 0.0 
  -1.8461799621582031 1.326320037841797 9.301209716796874 70.8034 87.519 644.92 3.03189 -13.6527 1.35977 -5.57426 18.8829 2.38424 22.0691 44.3482 350.123 -58.1483 -82.659 -408.576 -116.6936 -2.57077 365.785 -45.4186 8.61242 11.824 0.0 18.4738 0.0 6.60633 -13.8655 2.47693 0.0 0.0 0.0 0.0 0.0 0.0 119.8814 -8.97771 -358.693 44.6162 -7.34661 -370.144 0.0 118.295 0.0 -45.6707 34.9927 9.57573 0.0 0.0 0.0 0.0 0.0 0.0 -3.55749 -2.4284 -9.60442 0.0 19.2467 0.0 -16.1494 -8.6124 12.6451 0.0 -19.5124 0.0 3.01029 -6.81965 24.5982 0.0 24.1063 0.0 31.8149 -10.787901 -3.43674 0.0 -16.66394 0.0 
  -1.83281005859375 1.3402400207519531 9.30094970703125 70.1837 87.5103 645.352 2.9656 -13.4978 1.30947 -5.54912 19.0282 2.38736 21.9906 44.1555 350.16 -57.4634 -82.6404 -407.876 -116.6617 -2.47223 365.831 -45.3926 8.71106 11.9506 0.0 18.5498 0.0 6.79788 -13.7997 2.67863 0.0 0.0 0.0 0.0 0.0 0.0 119.8595 -8.97926 -358.765 44.7153 -7.33486 -370.437 0.0 118.374 0.0 -45.6564 35.2056 9.69288 0.0 0.0 0.0 0.0 0.0 0.0 -3.65205 -2.54803 -9.48136 0.0 19.3883 0.0 -16.0865 -8.619499 12.7334 0.0 -19.49245 0.0 2.92734 -6.96545 24.5657 0.0 24.1866 0.0 31.9536 -10.6241 -3.2022 0.0 -16.62677 0.0 
  -1.8186399841308594 1.354320068359375 9.300880126953125 69.6978 87.5088 645.682 2.94649 -13.311 1.28624 -5.56654 19.0978 2.36676 22.0425 44.0011 350.033 -56.9935 -82.6042 -407.309 -116.6523 -2.38 365.849 -45.3136 8.79479 12.034 0.0 18.5938 0.0 6.87334 -13.792 2.81699 0.0 0.0 0.0 0.0 0.0 0.0 119.822 -8.99156 -358.71 44.7458 -7.44465 -370.826 0.0 118.406 0.0 -45.403 34.8871 9.64463 0.0 0.0 0.0 0.0 0.0 0.0 -3.74294 -2.68877 -9.35183 0.0 19.5444 0.0 -15.9892 -8.5986 12.8098 0.0 -19.52931 0.0 2.87157 -7.10724 24.6838 0.0 24.2778 0.0 32.0295 -10.527901 -3.13439 0.0 -16.6804 0.0 
  -1.803990020751953 1.3697500610351563 9.300679931640625 70.2712 87.5026 644.851 2.97443 -13.1428 1.35138 -5.66296 19.2108 2.40358 21.6911 43.919 350.477 -57.004 -82.6843 -407.444 -116.6454 -2.31842 365.827 -45.1756 8.90599 12.093 0.0 18.7342 0.0 6.90736 -13.8039 2.80888 0.0 0.0 0.0 0.0 0.0 0.0 119.762 -8.9981 -358.681 44.7593 -7.4734 -371.143 0.0 118.203 0.0 -45.3273 35.0042 8.98146 0.0 0.0 0.0 0.0 0.0 0.0 -3.8465 -2.85022 -9.13697 0.0 19.6521 0.0 -15.8643 -8.5616 12.9203 0.0 -19.56026 0.0 2.80143 -7.30943 24.8398 0.0 24.3589 0.0 32.097 -10.389099 -3.01379 0.0 -16.53706 0.0 
  -1.7888499450683595 1.3860800170898437 9.299929809570312 71.2033 87.4989 643.654 3.04143 -12.9346 1.45698 -5.82213 19.2438 2.43098 21.6721 43.7312 350.499 -56.6849 -82.7415 -407.081 -116.6284 -2.26343 365.836 -45.001 9.03814 12.1603 0.0 18.8524 0.0 6.99352 -13.7431 2.97608 0.0 0.0 0.0 0.0 0.0 0.0 119.7059 -8.92589 -358.621 44.6791 -7.60003 -371.465 0.0 117.86 0.0 -44.881 34.796 10.0021 0.0 0.0 0.0 0.0 0.0 0.0 -3.96382 -3.04185 -8.99214 0.0 19.7851 0.0 -15.7838 -8.57 13.0624 0.0 -19.52092 0.0 2.75194 -7.55324 25.0689 0.0 24.4861 0.0 32.2482 -10.3043995 -2.91922 0.0 -16.51512 0.0 
  -1.772760009765625 1.4034599304199218 9.299530029296875 74.452 87.5159 640.13 3.1288 -12.8499 1.57963 -5.9945 19.3732 2.48654 21.6858 43.3697 350.45 -56.1378 -82.8224 -406.427 -116.6288 -2.18053 365.746 -44.8125 9.15225 12.2635 0.0 19.0123 0.0 7.08049 -13.7307 2.84834 0.0 0.0 0.0 0.0 0.0 0.0 119.6213 -8.91483 -358.534 44.5825 -7.57641 -371.803 0.0 117.213 0.0 -44.7274 34.6972 9.8367 0.0 0.0 0.0 0.0 0.0 0.0 -4.08472 -3.34698 -8.84303 0.0 19.9254 0.0 -15.6823 -8.564301 13.224 0.0 -19.5383 0.0 2.68138 -7.88738 25.2658 0.0 24.5383 0.0 32.4416 -10.194599 -2.81777 0.0 -16.68211 0.0 
  -1.7554200744628907 1.42052001953125 9.29281005859375 77.0308 87.4753 637.173 2.85709 -13.1762 1.18445 -4.8592 20.1376 2.63756 18.0278 43.1144 353.429 -58.3922 -81.8357 -410.384 -117.3408 -1.79859 365.494 -44.545 9.05573 12.5696 0.0 19.1997 0.0 6.45602 -13.52 1.86445 0.0 0.0 0.0 0.0 0.0 0.0 120.0193 -8.89075 -358.526 42.9506 -8.85383 -369.248 0.0 123.879 0.0 -28.2393 10.2419 7.1538 0.0 0.0 0.0 0.0 0.0 0.0 -4.24504 -3.60268 -8.57027 0.0 20.0723 0.0 -15.6469 -8.7351 13.2829 0.0 -19.43689 0.0 2.59638 -8.25382 25.551 0.0 24.7549 0.0 32.8137 -10.2558 -2.45738 0.0 -16.55209 0.0 
  -1.7375100708007813 1.4416600036621094 9.292730102539062 76.4388 87.4222 637.431 2.90334 -12.8567 1.31903 -5.03544 20.3449 2.72022 17.8684 42.4961 353.664 -58.175 -82.0822 -410.177 -117.3445 -1.66411 365.468 -44.3004 9.22895 12.7005 0.0 19.4841 0.0 6.6122 -13.4848 1.87193 0.0 0.0 0.0 0.0 0.0 0.0 119.9496 -8.733 -358.401 42.6773 -8.95635 -369.446 0.0 122.719 0.0 -27.1972 9.89783 6.73848 0.0 0.0 0.0 0.0 0.0 0.0 -4.38567 -3.71928 -8.29904 0.0 20.1242 0.0 -15.5381 -8.6563 13.4076 0.0 -19.47389 0.0 2.48723 -8.4868 25.7115 0.0 24.8994 0.0 32.9365 -10.066 -2.25158 0.0 -16.42331 0.0 
